# xmcd
#
# Track frame offsets:
#	150
#	4485
#	10835
#	21100
#	25612
#	36640
#	42295
#	52777
#	63475
#	71317
#	91460
#	105062
#	120965
#
# Disc length: 1813 seconds
#
# Revision: 2
# Processed by: cddbd v1.5.1PL0 Copyright (c) Steve Scherf et al.
# Submitted via: EasyCDDAExtractor 7.0.6.1
#
DISCID=9407130d
DTITLE=Tammy Wynette - Tammy Wynette  Stand By Your Man
DYEAR=1900
DGENRE=Country
TTITLE0=Trailer
TTITLE1=Welcome To My World
TTITLE2=Another Chance
TTITLE3=Your Good Girl's Gonna Go Bad
TTITLE4=D.I.V.O.R.C.E.
TTITLE5=Singing My Song
TTITLE6=Womanhood
TTITLE7=Fairy Tales
TTITLE8=When The Geen Grass Grows Over Me
TTITLE9=Medley
TTITLE10=Stand By Your Man
TTITLE11=Till I Can Make It On Your Own
TTITLE12=Crying In The Rain
EXTD=
EXTT0=
EXTT1=
EXTT2=
EXTT3=
EXTT4=
EXTT5=
EXTT6=
EXTT7=
EXTT8=
EXTT9=
EXTT10=
EXTT11=
EXTT12=
PLAYORDER=
